<?xml version="1.0" encoding="utf-8"?>
<!-- Generator: Adobe Illustrator 25.0.1, SVG Export Plug-In . SVG Version: 6.00 Build 0)  -->
<svg version="1.0" id="Layer_1" xmlns="http://www.w3.org/2000/svg" xmlns:xlink="http://www.w3.org/1999/xlink" x="0px" y="0px"
	 viewBox="0 0 158.6 103.9" style="enable-background:new 0 0 158.6 103.9;" xml:space="preserve">
<style type="text/css">
	.st0{fill:#03363D;}
	.st1{fill:#FFFFFF;}
</style>
<path class="st0" d="M19.9,46.6c-0.4,0.2-0.6,0.5-0.6,0.9v8.8c0,0.4,0.2,0.7,0.6,0.9l7.4,4.4c0.3,0.2,0.8,0.2,1.1,0l7.5-4.3
	c0.4-0.2,0.6-0.5,0.6-0.9v-8.9c0-0.5-0.2-0.8-0.6-0.9l-7.5-4.3c-0.3-0.1-0.7-0.1-1.1,0L19.9,46.6z"/>
<g>
	<path class="st1" d="M34.4,50.1c-3.5,0-6.4,3-6.4,6.7V57h-0.3v-0.2c0-3.7-2.9-6.6-6.4-6.7c0,0.2,0,0.5,0,0.7c0,2.9,1.8,5.3,4.2,6.3
		c0.8,0.3,1.6,0.4,2.4,0.4c0.8,0,1.6-0.1,2.4-0.4c2.5-0.9,4.2-3.4,4.2-6.3C34.5,50.6,34.5,50.3,34.4,50.1z"/>
	<circle class="st1" cx="27.9" cy="48.4" r="2.1"/>
</g>
<g>
	<path class="st0" d="M41.2,46.7c0-0.2,0.2-0.4,0.4-0.4l0,0H43c0.2,0,0.4,0.2,0.4,0.4V51l4-4.5c0.1-0.1,0.2-0.2,0.3-0.2h1.6
		c0.2,0,0.3,0.1,0.4,0.3c0,0.1,0,0.2-0.1,0.3l-4.1,4.7l4.4,5.3c0.1,0.2,0.1,0.4-0.1,0.5c-0.1,0-0.1,0.1-0.2,0.1h-1.7
		c-0.1,0-0.2,0-0.3-0.1l-4.2-5.2V57c0,0.2-0.2,0.4-0.4,0.4h-1.4c-0.2,0-0.4-0.2-0.4-0.4l0,0V46.7z"/>
	<path class="st0" d="M51,46.7c0-0.2,0.2-0.3,0.3-0.3h1.3c0.2,0,0.3,0.2,0.3,0.3v3.9c0.4-0.3,1-0.6,1.9-0.6c2.3,0,3,1.6,3,3.5v3.7
		c0,0.2-0.2,0.3-0.3,0.4h-1.3c-0.2,0-0.3-0.2-0.3-0.4v-3.7c0-1-0.5-1.6-1.3-1.6c-0.9,0-1.3,0.5-1.5,1.3v4c0,0.2-0.1,0.4-0.4,0.4
		h-1.4c-0.2,0-0.3-0.2-0.3-0.4V46.7L51,46.7z"/>
	<path class="st0" d="M61.8,52.8c0.5,0,0.9,0.1,1.4,0.2c0-0.9-0.2-1.4-1-1.4c-0.7,0-1.4,0.1-2.1,0.3c-0.2,0.1-0.4-0.1-0.4-0.3
		l-0.2-0.8c-0.1-0.2,0-0.4,0.2-0.4l0,0c0.8-0.2,1.7-0.4,2.5-0.4c2.3,0,2.8,1.2,2.8,3.2v4c0,0.2-0.2,0.3-0.3,0.4h-0.5
		c-0.1,0-0.2-0.1-0.3-0.3l-0.2-0.5c-0.6,0.6-1.4,0.9-2.3,0.9c-1.5,0-2.5-0.9-2.5-2.5C58.9,53.8,59.9,52.8,61.8,52.8z M61.8,56.1
		c0.6,0,1.2-0.5,1.3-0.8v-1.1C62.8,54.1,62.4,54,62,54c-0.8,0-1.3,0.4-1.3,1C60.8,55.7,61.2,56.1,61.8,56.1L61.8,56.1z"/>
	<path class="st0" d="M66.7,50.5c0-0.2,0.2-0.3,0.3-0.4h0.6c0.1,0,0.3,0.1,0.3,0.2l0.3,0.7c0.6-0.7,1.5-1.1,2.4-1.1
		c2.3,0,2.9,1.6,2.9,3.3V57c0,0.2-0.2,0.3-0.3,0.4h-1.3c-0.2,0-0.3-0.2-0.3-0.4v-3.8c0-0.9-0.4-1.5-1.3-1.5c-0.7,0-1.4,0.4-1.6,1.1
		V57c0,0.3-0.1,0.4-0.5,0.4H67c-0.2,0-0.3-0.2-0.3-0.4V50.5z"/>
	<path class="st0" d="M77.3,57l4.9-10.7c0.1-0.1,0.2-0.1,0.3-0.1h0.2c0.1,0,0.2,0.1,0.3,0.2l4.9,10.7c0.1,0.1,0,0.3-0.1,0.4
		c-0.1,0-0.1,0-0.2,0h-1.4c-0.2,0-0.3-0.1-0.5-0.3l-0.8-1.7h-4.7l-0.8,1.7c-0.1,0.2-0.3,0.3-0.5,0.3h-1.4c-0.2,0-0.3-0.1-0.3-0.3
		C77.2,57.1,77.3,57.1,77.3,57z M84.1,53.6l-1.6-3.5h-0.1l-1.6,3.5H84.1z"/>
	<path class="st0" d="M91.9,50c1.1,0,2,0.5,2.7,1.2c0.2,0.2,0.1,0.4-0.1,0.5l-0.7,0.7c-0.2,0.2-0.3,0.1-0.5-0.1
		c-0.3-0.3-0.8-0.6-1.5-0.6c-1.1,0-1.9,0.9-1.9,2c0,1.1,0.8,2,1.9,2c0.8,0,1.2-0.4,1.6-0.8c0.1-0.1,0.3-0.2,0.5-0.1l0.7,0.6
		c0.2,0.2,0.3,0.3,0.1,0.5c-0.6,1-1.6,1.5-2.9,1.5c-2.1,0-3.9-1.6-3.9-3.8C88,51.6,89.7,50,91.9,50z"/>
	<path class="st0" d="M98.7,52.8c0.5,0,0.9,0.1,1.4,0.2c0-0.9-0.2-1.4-1-1.4c-0.7,0-1.4,0.1-2.1,0.3c-0.2,0.1-0.4-0.1-0.4-0.3
		l-0.2-0.8c-0.1-0.2,0-0.4,0.2-0.4l0,0c0.8-0.2,1.7-0.4,2.5-0.4c2.3,0,2.8,1.2,2.8,3.2v4c0,0.2-0.2,0.3-0.3,0.4h-0.5
		c-0.1,0-0.2-0.1-0.3-0.3l-0.2-0.5c-0.6,0.6-1.4,0.9-2.3,0.9c-1.5,0-2.5-0.9-2.5-2.5C95.7,53.8,96.8,52.8,98.7,52.8z M98.7,56.1
		c0.6,0,1.2-0.5,1.3-0.8v-1.1c-0.3-0.1-0.7-0.2-1.1-0.2c-0.8,0-1.3,0.4-1.3,1C97.6,55.7,98,56.1,98.7,56.1z"/>
	<path class="st0" d="M106.8,50c0.6,0,1.2,0.1,1.8,0.3v-3.6c0-0.2,0.2-0.3,0.4-0.3h1.3c0.2,0,0.3,0.2,0.3,0.3v10.4
		c0,0.2-0.2,0.3-0.3,0.4h-0.6c-0.2,0-0.3-0.1-0.4-0.4l-0.2-0.6c-0.6,0.7-1.5,1.1-2.4,1.1c-2,0-3.5-1.6-3.5-3.8
		C103.2,51.6,104.6,50,106.8,50z M108.6,52.2c-0.5-0.3-1-0.4-1.5-0.4c-1.2,0-1.8,1-1.8,2s0.6,2,1.7,2c0.9,0,1.5-0.6,1.6-1
		L108.6,52.2L108.6,52.2z"/>
	<path class="st0" d="M115.5,50c1.9,0,3.4,1.4,3.4,3.4c0,0.1,0,0.4,0,0.5c0,0.2-0.2,0.3-0.3,0.3h-4.7c0,0.9,0.8,1.7,1.8,1.7
		c0.6,0,1.1-0.2,1.6-0.5c0.2-0.1,0.4-0.2,0.5,0l0.6,0.8c0.1,0.1,0.1,0.3,0,0.4c0,0,0,0-0.1,0c-0.8,0.7-1.7,1-2.7,1
		c-2.2,0-3.7-1.7-3.7-3.8C111.8,51.7,113.3,50,115.5,50z M116.9,52.9c0-0.7-0.6-1.3-1.4-1.3c-0.9,0-1.5,0.5-1.6,1.3H116.9z"/>
	<path class="st0" d="M120.1,50.5c0-0.2,0.2-0.3,0.3-0.4h0.6c0.1,0,0.3,0.1,0.3,0.2l0.3,0.7c0.5-0.7,1.4-1.1,2.2-1.1
		c1.1,0,1.6,0.4,2.2,1.1c0.3-0.3,1-1.1,2.4-1.1c2.3,0,2.9,1.5,2.9,3.4v3.8c0,0.2-0.2,0.4-0.4,0.4l0,0h-1.3c-0.2,0-0.3-0.2-0.3-0.4
		v-3.8c0-0.9-0.4-1.5-1.3-1.5c-1.1,0-1.4,0.8-1.4,0.8s0,0.4,0,0.7v3.9c0,0.2-0.2,0.3-0.3,0.4H125c-0.2,0-0.3-0.1-0.4-0.3l0,0v-3.8
		c0-0.9-0.3-1.5-1.2-1.5c-0.9,0-1.2,0.6-1.4,1.1v4.2c0,0.2-0.2,0.3-0.3,0.4h-1.3c-0.2,0-0.3-0.2-0.3-0.4L120.1,50.5L120.1,50.5z"/>
	<path class="st0" d="M132,50.6c-0.1-0.3,0-0.5,0.3-0.5h1.5c0.1,0,0.3,0.1,0.3,0.2l1.3,4.4l0,0l1.7-4.4c0.1-0.2,0.2-0.2,0.5-0.2h1.3
		c0.2,0,0.3,0.1,0.4,0.3c0,0.1,0,0.1,0,0.2L135,61c-0.1,0.1-0.2,0.2-0.3,0.2h-1.5c-0.2,0-0.3-0.1-0.4-0.3c0-0.1,0-0.1,0-0.2l1.5-3.7
		L132,50.6z"/>
</g>
</svg>
